PathFileType	4	(X/Y/Z)	C:/Users/beibeiliu/ov580/test_trc\sequence.7_training_dense_right.trc
DataRate	CameraRate	NumFrames	NumMarkers	Units	OrigDataRate	OrigDataStartFrame	OrigNumFrames
120	120	8	19	mm	120	194	310
Frame#	Time	ThumbCMC			ThumbMCP			ThumbIP			ThumbTip			IndexMCP			IndexPIP			IndexTip			MiddleMCP			MiddlePIP			MiddleTip			RingMCP			RingPIP			RingTip			PinkyMCP			PinkyPIP			PinkyTip			BackHand1			BackHand2			BackHand3	
		X0	Y0	Z0	X1	Y1	Z1	X2	Y2	Z2	X3	Y3	Z3	X4	Y4	Z4	X5	Y5	Z5	X6	Y6	Z6	X7	Y7	Z7	X8	Y8	Z8	X9	Y9	Z9	X10	Y10	Z10	X11	Y11	Z11	X12	Y12	Z12	X13	Y13	Z13	X14	Y14	Z14	X15	Y15	Z15	X16	Y16	Z16	X17	Y17	Z17	X18	Y18	Z18	
193	1.60833	165.424	-31.6661	38.6214	149.853	-39.7203	19.5115	142.131	-43.7777	0.553344	128.772	-48.9619	-17.1672	176.534	-24.3719	-26.7911	174.894	-30.3608	-53.7913	167.293	-35.0417	-71.3234	200.936	-28.3743	-36.5173	203.771	-34.4024	-58.8594	204.732	-39.8491	-84.0241	220.784	-36.2067	-24.932	224.661	-38.0624	-46.0652	223.967	-40.9386	-65.7337	239.275	-45.0392	-11.39	246.044	-46.1794	-27.6108	254.901	-42.5396	-40.7774	218.332	-25.5257	15.5331	215.07	-21.1251	40.8394	193.292	-16.2356	26.282	
194	1.61667	165.785	-30.532	37.2296	153.318	-41.8909	19.3105	141.431	-45.4498	2.00576	129.658	-48.5348	-18.6476	176.695	-24.6742	-25.534	171.89	-29.6993	-50.8503	171.217	-35.7252	-72.5344	200.093	-29.2317	-31.4292	203.091	-34.1338	-58.8832	205.276	-41.1451	-82.9183	221.723	-36.9037	-23.7133	223.338	-38.817	-45.6963	226.024	-41.6692	-70.1113	235.254	-43.8001	-13.3413	245.435	-46.5199	-26.8834	253.822	-43.4802	-37.5885	220.009	-26.9343	19.3014	220.736	-20.575	42.2059	192.106	-15.8268	28.037	
195	1.625	168.482	-33.42	41.352	151.103	-41.802	19.9628	143.544	-46.5266	-1.53527	132.302	-50.2136	-13.6399	177.763	-26.3199	-27.2565	173.062	-30.1872	-47.8722	167.028	-36.0094	-74.2572	198.987	-29.311	-33.3283	202.07	-33.7697	-55.8401	205.012	-42.3794	-83.9738	220.414	-36.1966	-27.349	223.901	-39.4233	-48.9434	225.119	-42.3274	-65.53	236.841	-44.6275	-12.4165	242.015	-47.6598	-24.4084	251.026	-43.7306	-39.0958	219.536	-26.4483	16.4856	217.969	-23.3462	41.9517	194.388	-16.2776	25.6581	
196	1.63333	168.05	-33.8078	37.6333	153.588	-42.6242	18.0523	141.305	-45.6	0.068126	132.442	-50.8124	-18.507	175.615	-25.7363	-29.5795	173.961	-29.9599	-48.3778	168.63	-36.4265	-72.6937	200.365	-29.2465	-32.4258	203.543	-35.0074	-60.4019	202.894	-41.2408	-80.5848	222.146	-37.3066	-27.4657	225.327	-39.7169	-49.0595	226.355	-42.4547	-69.9848	235.554	-45.617	-10.1276	241.749	-46.2856	-28.1184	248.849	-44.5812	-39.2218	218.537	-25.3986	18.1945	217.138	-22.8113	45.6006	194.641	-16.5779	30.6911	
197	1.64167	170.616	-34.5241	39.3635	154.189	-42.3157	17.2261	141.598	-46.0724	-3.33769	128.368	-50.0755	-15.7187	174.789	-25.9073	-28.3596	173.071	-31.6126	-52.8015	170.759	-36.5694	-73.0936	200.558	-29.7743	-35.43	203.854	-35.0625	-55.9918	200.632	-39.5511	-79.7279	220.814	-36.9725	-25.1797	220.631	-39.0594	-44.5244	223.526	-42.0142	-67.5086	235.01	-45.267	-11.0693	242.529	-46.5207	-25.939	252.039	-45.0994	-40.0315	220.296	-26.7779	17.6691	219.969	-21.7342	43.3943	191.426	-16.531	26.8474	
198	1.65	166.517	-32.8044	39.8035	153.734	-42.4179	16.8442	142.505	-46.4422	0.277091	129.843	-49.7886	-17.796	174.743	-25.9927	-25.911	173.509	-30.7026	-48.585	167.396	-36.36	-73.4974	202.041	-30.415	-34.6505	198.399	-34.2811	-58.9587	200.651	-39.2095	-80.0703	219.157	-36.6349	-25.3995	220.279	-39.2368	-46.79	226.065	-43.4341	-68.8144	234.966	-45.0464	-10.5876	242.58	-47.6959	-26.0118	251.883	-42.7841	-42.5169	217.878	-26.7758	18.9677	218.31	-23.9089	40.8446	194.442	-18.0178	29.7376	
199	1.65833	165.456	-32.4186	36.5692	154.419	-42.8003	18.9231	143.056	-45.6979	-3.4713	130.935	-49.1353	-16.108	174.807	-26.4673	-29.6365	168.956	-29.6283	-49.7851	168.824	-35.9573	-73.3008	201.981	-30.4581	-30.9858	202.942	-34.0211	-55.2366	200.937	-39.3898	-80.7245	221.652	-36.9343	-27.4343	224.944	-40.3252	-46.3658	223.637	-41.7131	-69.6175	237.317	-44.8444	-12.9665	244.297	-47.185	-27.3891	253.2	-43.6195	-43.4826	219.725	-26.6856	20.5804	217.242	-23.5601	43.3877	193.492	-16.3391	26.4712	
200	1.66667	169.785	-33.9436	40.7335	153.546	-41.8545	22.2804	139.889	-45.4941	1.93396	132.493	-48.9647	-16.3953	177.931	-25.7251	-26.6115	171.464	-30.3717	-50.5816	166.079	-35.2853	-71.6344	198.969	-28.3969	-31.5735	200.97	-34.2956	-58.7463	203.137	-40.5455	-84.0589	218.817	-35.786	-26.3204	221.348	-39.3083	-47.765	225.307	-42.509	-67.4734	237.219	-45.8513	-7.40199	241.932	-46.3446	-28.4245	253.827	-45.4565	-43.5819	215.302	-26.4315	20.407	218.094	-22.4537	43.3252	190.202	-14.7802	31.4394	
